<svg width="45" height="45" viewBox="0 0 45 45" fill="none" xmlns="http://www.w3.org/2000/svg">
<path d="M3.06818 39.3835H10.2273V21.9971L0 14.3267V36.3153C0 38.013 1.37557 39.3835 3.06818 39.3835Z" fill="#4285F4"/>
<path d="M34.7725 39.3835H41.9316C43.6293 39.3835 44.9997 38.0079 44.9997 36.3153V14.3267L34.7725 21.9971" fill="#34A853"/>
<path d="M34.7725 8.70189V21.9973L44.9997 14.3269V10.236C44.9997 6.44166 40.6685 4.27859 37.6361 6.55416" fill="#FBBC04"/>
<path d="M10.2275 21.9971V8.70166L22.5003 17.9062L34.773 8.70166V21.9971L22.5003 31.2017" fill="#EA4335"/>
<path d="M0 10.236V14.3269L10.2273 21.9973V8.70189L7.36364 6.55416C4.32614 4.27859 0 6.44166 0 10.236Z" fill="#C5221F"/>
</svg>
