<svg width="45" height="45" viewBox="0 0 45 45" fill="none" xmlns="http://www.w3.org/2000/svg">
<g clip-path="url(#clip0_13_1409)">
<path d="M45 22.5C45 10.0736 34.9264 3.05176e-05 22.5 3.05176e-05C10.0736 3.05176e-05 0 10.0736 0 22.5C0 33.0521 7.26434 41.906 17.0645 44.3374V29.3756H12.4248V22.5H17.0645V19.5373C17.0645 11.879 20.5302 8.32943 28.0488 8.32943C29.4743 8.32943 31.9339 8.60888 32.9401 8.88842V15.1213C32.409 15.0654 31.4867 15.0374 30.3407 15.0374C26.6513 15.0374 25.2258 16.4349 25.2258 20.0684V22.5H32.5751L31.3126 29.3756H25.2258V44.8352C36.3665 43.4896 45 34.0036 45 22.5Z" fill="#0866FF"/>
<path d="M31.3125 29.3757L32.5752 22.5H25.2259V20.0683C25.2259 16.4348 26.6513 15.0374 30.3406 15.0374C31.4866 15.0374 32.4089 15.0653 32.94 15.1212V8.88843C31.9338 8.60889 29.4742 8.32935 28.0488 8.32935C20.5303 8.32935 17.0645 11.879 17.0645 19.5373V22.5H12.4248V29.3757H17.0645V44.3374C18.8053 44.7692 20.6256 45 22.4999 45C23.4228 45 24.3322 44.9431 25.2259 44.8352V29.3757H31.3125Z" fill="white"/>
</g>
<defs>
<clipPath id="clip0_13_1409">
<rect width="45" height="45" fill="white"/>
</clipPath>
</defs>
</svg>
