<svg width="42" height="42" viewBox="0 0 42 42" fill="none" xmlns="http://www.w3.org/2000/svg">
<path d="M0 42L2.96634 31.2148C1.1359 28.0578 0.174077 24.479 0.175835 20.8092C0.18111 9.33625 9.56192 0 21.0879 0C26.6812 0.00175 31.9317 2.17 35.8809 6.104C39.8284 10.038 42.0018 15.267 42 20.8285C41.9947 32.3032 32.6139 41.6395 21.0879 41.6395C17.5888 41.6378 14.1407 40.7645 11.0864 39.1055L0 42ZM11.5998 35.3378C14.5468 37.079 17.3602 38.122 21.0809 38.1237C30.6604 38.1237 38.464 30.3643 38.4692 20.825C38.4727 11.2665 30.7061 3.5175 21.0949 3.514C11.5084 3.514 3.71012 11.2735 3.70661 20.811C3.70485 24.7048 4.85129 27.6202 6.77669 30.6705L5.0201 37.0545L11.5998 35.3378ZM31.6222 25.7757C31.4921 25.5588 31.1439 25.4293 30.6199 25.1685C30.0977 24.9077 27.5288 23.6495 27.0487 23.4762C26.5705 23.303 26.2223 23.2155 25.8724 23.737C25.5242 24.2568 24.522 25.4293 24.2178 25.7757C23.9136 26.1222 23.6076 26.166 23.0854 25.9053C22.5632 25.6445 20.8787 25.0968 18.8829 23.324C17.3303 21.945 16.2806 20.2423 15.9764 19.7208C15.6722 19.201 15.9447 18.9193 16.205 18.6602C16.4406 18.4275 16.7272 18.053 16.9892 17.7485C17.2547 17.4475 17.3409 17.2305 17.5167 16.8822C17.6908 16.5358 17.6046 16.2313 17.4727 15.9705C17.3409 15.7115 16.2964 13.1512 15.8621 12.11C15.4366 11.0968 15.0058 11.2332 14.6858 11.2175L13.6835 11.2C13.3353 11.2 12.7692 11.3295 12.2909 11.851C11.8126 12.3725 10.4622 13.629 10.4622 16.1893C10.4622 18.7495 12.3348 21.2222 12.5951 21.5688C12.8571 21.9152 16.2788 27.1688 21.5205 29.421C22.7671 29.9565 23.7413 30.2767 24.4991 30.5165C25.7511 30.912 26.8905 30.856 27.7908 30.723C28.7948 30.5742 30.8819 29.4648 31.318 28.2502C31.7541 27.034 31.7541 25.9928 31.6222 25.7757Z" fill="#25D366"/>
</svg>
